<?xml version="1.0" encoding="utf-8"?>
<!-- Generator: Adobe Illustrator 21.0.0, SVG Export Plug-In . SVG Version: 6.00 Build 0)  -->
<svg version="1.1" id="Layer_1" xmlns="http://www.w3.org/2000/svg" xmlns:xlink="http://www.w3.org/1999/xlink" x="0px" y="0px"
	 viewBox="0 0 3634.5 88" style="enable-background:new 0 0 3634.5 88;" xml:space="preserve">
<style type="text/css">
	.st0{fill:#386D0A;}
</style>
<g>
	<path class="st0" d="M2054.3,20.4c-1.3,1.9-1.9,4-1.6,6.2c-1.9-9.4-15.7-10.3-16.7-2.1c-5.8-7.3-12.2-8.5-16.1-3.8
		c-7.8-21.1-38.3-0.5-24.2,7.7c-5.6,0.4-8.1,1.8-9.2,3.5c-0.7-1.4-1.8-2.5-3.2-3.3c-4.6-2.7-11.6-1.8-17-0.9l-0.4-0.2
		c4.2-3.6,3.6-8.6-2.9-9.7c-5.2-1.3-9.6,2.1-13.5,4.3c0.6-5.6-5.8-8-12.2-5.7c4.4-2.6,2.5-6.9-2.7-8.6c-3.2-1-9.7,0.9-13.2,1.5
		c9.6-14.2-33.4-11.7-26.2,4.8c-4.2-0.6-8.4-0.3-12.4,1c-0.9-2.7-3.4-4.6-6.2-4.7c-0.4-0.2-0.9-0.4-1.3-0.5
		c4.9-10.9-14.9-7.5-20.1-3.6c3.8-6.7-8.9-4.7-12.4-2.1v0.9c-6.1-2.7-13.2-2.1-18.8,1.6c-5.6,4.2-4,8.8-3.8,14.2
		c-3.3-5.6-11-10.1-16.7-3.6c-1.3-5.2-6.5-7.5-13.2-6.1c-7.8,1.5-9,5-9.5,10.7c-6.3-1.9-14.6-1.9-18.7,2.8c7.1-7.3-4.4-14.2-9.4-8.4
		c1.8-5.9-11.8-6.7-17.1-2.6c-0.9-4.9-3.6-6.8-10.7-6.6c-4.5,0.3-10.1,1.3-11.6,5.3c1.1-6.6-12.9-7.1-19.8-2.2
		c1.8-2.1,0-5.8-2.8-7.3c-3.1-1.3-6.4-1.9-9.8-1.7c-5.6-0.3-20.4,2.6-16.9,9.3c-4.9,0-11.7,0.6-10.4,5.9c-4.6-0.8-9.4-0.8-13.9,0.1
		c0.1-0.5,0.1-1-0.1-1.6c0.6-1.7-0.7-2.6-2.7-3.1c-0.7-0.4-1.4-0.7-2.3-1c-3.2-1-9.7,0.9-13.2,1.5c9.6-14.2-33.4-11.7-26.2,4.8
		c-4.2-0.6-8.4-0.3-12.4,1c-0.9-2.7-3.4-4.6-6.2-4.7c-0.4-0.2-0.9-0.4-1.3-0.5c4.9-10.9-14.9-7.5-20.1-3.6c3.8-6.7-8.9-4.7-12.4-2.1
		v0.9c-6.1-2.7-13.2-2.1-18.8,1.6c-2.8,2.1-3.8,4.3-4.1,6.7c-1.8,0.5-3.7,1.2-5.2,2.1c-3.5-2-7.8-2.2-11.3,1.8
		c-1.3-5.2-6.5-7.5-13.2-6.1c-7.7,1.5-9,5-9.5,10.6c-0.1,0-0.2,0-0.3,0.1c-1.2-0.4-2.6-0.6-3.9-0.8c-2-4.4-9-7.3-13.2-3.9
		c-2.2-3.2-7.7-4.4-10.7-0.8c1.8-5.9-11.8-6.7-17.1-2.6c-0.9-4.9-3.6-6.8-10.7-6.6c-4.5,0.3-10.1,1.3-11.6,5.3
		c0.7-4.2-4.7-5.9-10.5-5.4c-0.9-0.9-2.1-1.7-3.8-2.2c-1.5-0.5-3.7-0.3-6,0.1c-0.6-0.8-1.4-1.5-2.3-2c-1.1-0.5-2.3-0.8-3.4-1.1
		c-1.4-8.8-33.2-5.2-28,9c-0.5,0.1-1,0.2-1.5,0.3c-3.7-0.1-7.3,0.8-10.6,2.7c-0.8-8-10.3-8.1-15.8-2.4c-1,0-2,0.1-2.9,0.2
		c-8.5-4.3-18.6,3.1-17.5,10.5c-1.9-9.4-15.7-10.3-16.7-2.1c-5.8-7.3-12.2-8.5-16.1-3.8c-7.8-21.1-38.3-0.5-24.2,7.7
		c-3.6,0.2-6,0.9-7.5,1.8c-2.9-1.5-7.5-1.3-10.9-1.3c8.8-4.2-5.5-9.5-10.7-9c-5.9,0.6-17.5,4.5-11.5,9.6c-8.5-4.1-16,0-22.5,4.2
		c-1.8-3.6-9.5-6.5-13.7-2.8c0-6.4-11.4-11.5-15.5-4.2c-3.8-2.6-8.7-3-12.8-0.9c-2.2,1.4-3.6,3.7-3.8,6.4c-5-1.2-10.1-1.2-15.1,0
		l-0.4-0.2c4.3-3.6,3.9-8.6-2.6-9.7c-5.2-1.3-9.6,2.1-13.6,4.3c0.8-5.6-5.5-8-12-5.7c4.5-2.6,2.8-6.9-2.4-8.6
		c-3.1-1-9.7,0.9-13.2,1.5c10.1-14.2-33.2-11.7-26.4,4.9c-4.2-0.5-8.5,0.4-12.2,2.6c-0.8-7.2-8.5-8-14-3.9c-0.6,0.1-1.2,0.3-1.9,0.5
		c4.4-2.6,2.5-6.9-2.7-8.6c-3.2-1-9.7,0.9-13.2,1.5c9.6-14.2-33.4-11.7-26.2,4.8c-4.2-0.6-8.4-0.3-12.4,1c-0.9-2.7-3.4-4.6-6.2-4.7
		c-0.4-0.2-0.9-0.4-1.3-0.5c4.9-10.9-14.9-7.5-20.1-3.6c3.8-6.7-8.9-4.7-12.4-2.1v0.9c-6.1-2.7-13.2-2.1-18.8,1.6
		c-5.6,4.2-4,8.8-3.8,14.2c-3.3-5.6-11-10.1-16.7-3.6c-1.3-5.2-6.5-7.5-13.2-6.1c-7.8,1.5-9,5-9.5,10.7c-6.3-1.9-14.6-1.9-18.7,2.8
		c7.1-7.3-4.4-14.2-9.4-8.4c1.8-5.9-11.8-6.7-17.1-2.6c-0.9-4.9-3.6-6.8-10.7-6.6c-4.5,0.3-10.1,1.3-11.6,5.3
		c1.1-6.6-12.9-7.1-19.8-2.2c1.8-2.1,0-5.8-2.8-7.3c-3.1-1.3-6.4-1.9-9.8-1.7c-5.6-0.3-20.4,2.6-16.9,9.3c-4.9,0-11.7,0.6-10.4,5.9
		c-5-0.9-10.2-0.8-15.1,0.3c3-3.7,0-5-4.3-5.2c-0.5-0.3-1-0.5-1.6-0.7c-3.2-1-9.7,0.9-13.2,1.5c9.6-14.2-33.4-11.7-26.2,4.8
		c-4.2-0.6-8.4-0.3-12.4,1c-0.9-2.7-3.4-4.6-6.2-4.7c-0.4-0.2-0.9-0.4-1.3-0.5c4.9-10.9-14.9-7.5-20.1-3.6c3.8-6.7-8.9-4.7-12.4-2.1
		v0.9c-6.1-2.7-13.2-2.1-18.8,1.6c-3.1,2.3-4,4.7-4.1,7.4c-1.6,0.6-3,1.3-4.1,2c-3.7-2.6-8.4-3.2-12.3,1.2
		c-1.3-5.2-6.5-7.5-13.2-6.1c-7.8,1.5-9,5-9.5,10.7c-0.6-0.2-1.3-0.4-2-0.5c-1.9-5.1-10.8-8.5-14.7-2.9c-1.3-4.1-7.9-6.3-11.4-2.2
		c1.8-5.9-11.8-6.7-17.1-2.6c-0.9-4.9-3.6-6.8-10.7-6.6c-4.5,0.3-10.1,1.3-11.6,5.3c0.6-3.7-3.6-5.5-8.6-5.5
		c-0.9-0.9-2.1-1.6-3.7-2.1c-1.8-0.6-4.9-0.2-7.8,0.4c-0.6-0.9-1.5-1.8-2.5-2.3c-0.5-0.2-0.9-0.4-1.4-0.5c0-9.5-33.1-6.1-28.2,8.2
		c-1.3,0.1-2.6,0.3-3.7,0.6c-2.9,0.3-5.7,1.1-8.3,2.6c-0.8-8-10.3-8.1-15.8-2.4c-1,0-2.1,0-3.1,0c-8.5-4-18.4,3.3-17.2,10.6
		c-1.9-9.4-15.7-10.3-16.7-2.1c-5.8-7.3-12.2-8.5-16.1-3.8c-7.8-21.1-38.3-0.5-24.2,7.7c-4.5,0.3-7.1,1.3-8.4,2.6
		c-2.6-2.2-8.1-2.1-12-2.1c8.8-4.2-5.5-9.5-10.7-9c-5.9,0.6-17.5,4.5-11.5,9.6c-8.5-4.1-16,0-22.5,4.2c-1.8-3.6-9.5-6.5-13.7-2.8
		c0-6.4-11.4-11.5-15.5-4.2c-3.8-2.6-8.7-3-12.8-0.9c-2.2,1.4-3.6,3.7-3.8,6.4c-5-1.2-10.1-1.2-15.1,0l-0.4-0.2
		c4.3-3.6,3.9-8.6-2.6-9.7c-5.2-1.3-9.6,2.1-13.6,4.3c0.8-5.6-5.5-8-12-5.7c4.5-2.6,2.8-6.9-2.4-8.6c-3.1-1-9.7,0.9-13.2,1.5
		c10.1-14.2-33.2-11.7-26.4,4.9c-4.2-0.5-8.5,0.4-12.2,2.6c-0.9-8.6-11.6-8.1-16.9-1.1c-8.8-6.5-20.5,1.5-19.3,9.4
		C101,18.7,87.2,17.8,86.2,26c-5.8-7.3-12.2-8.5-16.1-3.8c-7.8-21.1-38.3-0.5-24.2,7.7c-15,1-8.2,9.7-8.2,9.7
		c-8.2-4.5-18.7,6.5-14.4,11.1C12.6,47,2.3,56.5,8.8,64.9c-22.2,1.4-5.5,25.5,7.7,13.4c4,4.3,8.7,9.2,16.7,9.7l2023.3-1.1
		C2054.7,64.8,2054.3,42.6,2054.3,20.4z M785.5,11.9l-1.3-0.4c0.7,0,1.5-0.2,2.3-0.6C786.1,11.2,785.8,11.6,785.5,11.9z
		 M1691.5,11.9l-1.3-0.4c0.7,0,1.5-0.2,2.3-0.6C1692.1,11.2,1691.8,11.6,1691.5,11.9z M1987.2,37.9c0-0.1,0-0.2,0.1-0.2
		c0.2,0.3,0.3,0.4,0.3,0.4C1987.5,38,1987.3,38,1987.2,37.9z"/>
	<path class="st0" d="M3630.3,20.4c-1.3,1.9-1.9,4-1.6,6.2c-1.9-9.4-15.7-10.3-16.7-2.1c-5.8-7.3-12.2-8.5-16.1-3.8
		c-7.8-21.1-38.3-0.5-24.2,7.7c-5.6,0.4-8.1,1.8-9.2,3.5c-0.7-1.4-1.8-2.5-3.2-3.3c-4.6-2.7-11.6-1.8-17-0.9l-0.4-0.2
		c4.2-3.6,3.6-8.6-2.9-9.7c-5.2-1.3-9.6,2.1-13.5,4.3c0.6-5.6-5.8-8-12.2-5.7c4.4-2.6,2.5-6.9-2.7-8.6c-3.2-1-9.7,0.9-13.2,1.5
		c9.6-14.2-33.4-11.7-26.2,4.8c-4.2-0.6-8.4-0.3-12.4,1c-0.9-2.7-3.4-4.6-6.2-4.7c-0.4-0.2-0.9-0.4-1.3-0.5
		c4.9-10.9-14.9-7.5-20.1-3.6c3.8-6.7-8.9-4.7-12.4-2.1v0.9c-6.1-2.7-13.2-2.1-18.8,1.6c-5.6,4.2-4,8.8-3.8,14.2
		c-3.3-5.6-11-10.1-16.7-3.6c-1.3-5.2-6.5-7.5-13.2-6.1c-7.8,1.5-9,5-9.5,10.7c-6.3-1.9-14.6-1.9-18.7,2.8c7.1-7.3-4.4-14.2-9.4-8.4
		c1.8-5.9-11.8-6.7-17.1-2.6c-0.9-4.9-3.6-6.8-10.7-6.6c-4.5,0.3-10.1,1.3-11.6,5.3c1.1-6.6-12.9-7.1-19.8-2.2
		c1.8-2.1,0-5.8-2.8-7.3c-3.1-1.3-6.4-1.9-9.8-1.7c-5.6-0.3-20.4,2.6-16.9,9.3c-4.9,0-11.7,0.6-10.4,5.9c-4.6-0.8-9.4-0.8-13.9,0.1
		c0.1-0.5,0.1-1-0.1-1.6c0.6-1.7-0.7-2.6-2.7-3.1c-0.7-0.4-1.4-0.7-2.3-1c-3.2-1-9.7,0.9-13.2,1.5c9.6-14.2-33.4-11.7-26.2,4.8
		c-4.2-0.6-8.4-0.3-12.4,1c-0.9-2.7-3.4-4.6-6.2-4.7c-0.4-0.2-0.9-0.4-1.3-0.5c4.9-10.9-14.9-7.5-20.1-3.6c3.8-6.7-8.9-4.7-12.4-2.1
		v0.9c-6.1-2.7-13.2-2.1-18.8,1.6c-2.8,2.1-3.8,4.3-4.1,6.7c-1.8,0.5-3.7,1.2-5.2,2.1c-3.5-2-7.8-2.2-11.3,1.8
		c-1.3-5.2-6.5-7.5-13.2-6.1c-7.7,1.5-9,5-9.5,10.6c-0.1,0-0.2,0-0.3,0.1c-1.2-0.4-2.6-0.6-3.9-0.8c-2-4.4-9-7.3-13.2-3.9
		c-2.2-3.2-7.7-4.4-10.7-0.8c1.8-5.9-11.8-6.7-17.1-2.6c-0.9-4.9-3.6-6.8-10.7-6.6c-4.5,0.3-10.1,1.3-11.6,5.3
		c0.7-4.2-4.7-5.9-10.5-5.4c-0.9-0.9-2.1-1.7-3.8-2.2c-1.5-0.5-3.7-0.3-6,0.1c-0.6-0.8-1.4-1.5-2.3-2c-1.1-0.5-2.3-0.8-3.4-1.1
		c-1.4-8.8-33.2-5.2-28,9c-0.5,0.1-1,0.2-1.5,0.3c-3.7-0.1-7.3,0.8-10.6,2.7c-0.8-8-10.3-8.1-15.8-2.4c-1,0-2,0.1-2.9,0.2
		c-8.5-4.3-18.6,3.1-17.5,10.5c-1.9-9.4-15.7-10.3-16.7-2.1c-5.8-7.3-12.2-8.5-16.1-3.8c-7.8-21.1-38.3-0.5-24.2,7.7
		c-3.6,0.2-6,0.9-7.5,1.8c-2.9-1.5-7.5-1.3-10.9-1.3c8.8-4.2-5.5-9.5-10.7-9c-5.9,0.6-17.5,4.5-11.5,9.6c-8.5-4.1-16,0-22.5,4.2
		c-1.8-3.6-9.5-6.5-13.7-2.8c0-6.4-11.4-11.5-15.5-4.2c-3.8-2.6-8.7-3-12.8-0.9c-2.2,1.4-3.6,3.7-3.8,6.4c-5-1.2-10.1-1.2-15.1,0
		l-0.4-0.2c4.3-3.6,3.9-8.6-2.6-9.7c-5.2-1.3-9.6,2.1-13.6,4.3c0.8-5.6-5.5-8-12-5.7c4.5-2.6,2.8-6.9-2.4-8.6
		c-3.1-1-9.7,0.9-13.2,1.5c10.1-14.2-33.2-11.7-26.4,4.9c-4.2-0.5-8.5,0.4-12.2,2.6c-0.8-7.2-8.5-8-14-3.9c-0.6,0.1-1.2,0.3-1.9,0.5
		c4.4-2.6,2.5-6.9-2.7-8.6c-3.2-1-9.7,0.9-13.2,1.5c9.6-14.2-33.4-11.7-26.2,4.8c-4.2-0.6-8.4-0.3-12.4,1c-0.9-2.7-3.4-4.6-6.2-4.7
		c-0.4-0.2-0.9-0.4-1.3-0.5c4.9-10.9-14.9-7.5-20.1-3.6c3.8-6.7-8.9-4.7-12.4-2.1v0.9c-6.1-2.7-13.2-2.1-18.8,1.6
		c-5.6,4.2-4,8.8-3.8,14.2c-3.3-5.6-11-10.1-16.7-3.6c-1.3-5.2-6.5-7.5-13.2-6.1c-7.8,1.5-9,5-9.5,10.7c-6.3-1.9-14.6-1.9-18.7,2.8
		c7.1-7.3-4.4-14.2-9.4-8.4c1.8-5.9-11.8-6.7-17.1-2.6c-0.9-4.9-3.6-6.8-10.7-6.6c-4.5,0.3-10.1,1.3-11.6,5.3
		c1.1-6.6-12.9-7.1-19.8-2.2c1.8-2.1,0-5.8-2.8-7.3c-3.1-1.3-6.4-1.9-9.8-1.7c-5.6-0.3-20.4,2.6-16.9,9.3c-4.9,0-11.7,0.6-10.4,5.9
		c-5-0.9-10.2-0.8-15.1,0.3c3-3.7,0-5-4.3-5.2c-0.5-0.3-1-0.5-1.6-0.7c-3.2-1-9.7,0.9-13.2,1.5c9.6-14.2-33.4-11.7-26.2,4.8
		c-4.2-0.6-8.4-0.3-12.4,1c-0.9-2.7-3.4-4.6-6.2-4.7c-0.4-0.2-0.9-0.4-1.3-0.5c4.9-10.9-14.9-7.5-20.1-3.6c3.8-6.7-8.9-4.7-12.4-2.1
		v0.9c-6.1-2.7-13.2-2.1-18.8,1.6c-3.1,2.3-4,4.7-4.1,7.4c-1.6,0.6-3,1.3-4.1,2c-3.7-2.6-8.4-3.2-12.3,1.2
		c-1.3-5.2-6.5-7.5-13.2-6.1c-7.8,1.5-9,5-9.5,10.7c-0.6-0.2-1.3-0.4-2-0.5c-1.9-5.1-10.8-8.5-14.7-2.9c-1.3-4.1-7.9-6.3-11.4-2.2
		c1.8-5.9-11.8-6.7-17.1-2.6c-0.9-4.9-3.6-6.8-10.7-6.6c-4.5,0.3-10.1,1.3-11.6,5.3c0.6-3.7-3.6-5.5-8.6-5.5
		c-0.9-0.9-2.1-1.6-3.7-2.1c-1.8-0.6-4.9-0.2-7.8,0.4c-0.6-0.9-1.5-1.8-2.5-2.3c-0.5-0.2-0.9-0.4-1.4-0.5c0-9.5-33.1-6.1-28.2,8.2
		c-1.3,0.1-2.6,0.3-3.7,0.6c-2.9,0.3-5.7,1.1-8.3,2.6c-0.8-8-10.3-8.1-15.8-2.4c-1,0-2.1,0-3.1,0c-8.5-4-18.4,3.3-17.2,10.6
		c-1.9-9.4-15.7-10.3-16.7-2.1c-5.8-7.3-12.2-8.5-16.1-3.8c-7.8-21.1-38.3-0.5-24.2,7.7c-4.5,0.3-7.1,1.3-8.4,2.6
		c-2.6-2.2-8.1-2.1-12-2.1c8.8-4.2-5.5-9.5-10.7-9c-5.9,0.6-17.5,4.5-11.5,9.6c-8.5-4.1-16,0-22.5,4.2c-1.8-3.6-9.5-6.5-13.7-2.8
		c0-6.4-11.4-11.5-15.5-4.2c-3.8-2.6-8.7-3-12.8-0.9c-2.2,1.4-3.6,3.7-3.8,6.4c-5-1.2-10.1-1.2-15.1,0l-0.4-0.2
		c4.3-3.6,3.9-8.6-2.6-9.7c-5.2-1.3-9.6,2.1-13.6,4.3c0.8-5.6-5.5-8-12-5.7c4.5-2.6,2.8-6.9-2.4-8.6c-3.1-1-9.7,0.9-13.2,1.5
		c10.1-14.2-33.2-11.7-26.4,4.9c-4.2-0.5-8.5,0.4-12.2,2.6c-0.9-8.6-11.6-8.1-16.9-1.1c-8.8-6.5-20.5,1.5-19.3,9.4
		c-1.9-9.4-15.7-10.3-16.7-2.1c-5.8-7.3-12.2-8.5-16.1-3.8c-7.8-21.1-38.3-0.5-24.2,7.7c-15,1-8.2,9.7-8.2,9.7
		c-8.2-4.5-18.7,6.5-14.4,11.1c-10.7-3.7-21,5.8-14.5,14.2c-22.2,1.4-5.5,25.5,7.7,13.4c4,4.3,8.7,9.2,16.7,9.7l2023.3-1.1
		C3630.7,64.8,3630.3,42.6,3630.3,20.4z M2361.5,11.9l-1.3-0.4c0.7,0,1.5-0.2,2.3-0.6C2362.1,11.2,2361.8,11.6,2361.5,11.9z
		 M3267.5,11.9l-1.3-0.4c0.7,0,1.5-0.2,2.3-0.6C3268.1,11.2,3267.8,11.6,3267.5,11.9z M3563.2,37.9c0-0.1,0-0.2,0.1-0.2
		c0.2,0.3,0.3,0.4,0.3,0.4C3563.5,38,3563.3,38,3563.2,37.9z"/>
</g>
</svg>
