<?xml version="1.0" encoding="utf-8"?>
<!-- Generator: Adobe Illustrator 21.0.0, SVG Export Plug-In . SVG Version: 6.00 Build 0)  -->
<svg version="1.1" id="Layer_1" xmlns="http://www.w3.org/2000/svg" xmlns:xlink="http://www.w3.org/1999/xlink" x="0px" y="0px"
	 viewBox="0 0 175.4 73.6" style="enable-background:new 0 0 175.4 73.6;" xml:space="preserve">
<style type="text/css">
	.st0{fill:#3D3D3D;}
	.st1{fill:#282828;}
	.st2{fill:#424143;}
	.st3{fill:#E6E6E6;}
	.st4{fill:#FFFFFF;}
	.st5{fill:#F9A94B;}
	.st6{fill:#333333;}
	.st7{fill:#CE1F2F;}
	.st8{fill:#221F1F;}
	.st9{
	fill:#F8931E;
}

	.wheel {
		fill: #bcbdbf;
		transform-origin: center center;
		width: 21px;
		height: 22px;
		    -webkit-animation:spin 2s linear infinite;
    -moz-animation:spin 2s linear infinite;
    animation:spin 2s linear infinite;
	}

	@-moz-keyframes spin { 100% { -moz-transform: rotate(-360deg); } }
@-webkit-keyframes spin { 100% { -webkit-transform: rotate(-360deg); } }
@keyframes spin { 100% { -webkit-transform: rotate(-360deg); transform:rotate(-360deg); } }

</style>
<path id="Fill-61" class="st0" d="M174.9,73.2c-0.1,0.5-0.6,0.9-1.1,0.8H1.4c-0.5,0.1-0.9-0.1-1.1-0.6c-0.1-0.5,0.1-0.9,0.6-1.1
	c0.2,0,0.3,0,0.5,0h172.4C174.3,72.3,174.8,72.6,174.9,73.2"/>
<g>
	<polygon id="Fill-113" class="st1" points="125.2,63.4 76.2,55 76.6,52.9 125.6,61.3 	"/>
	<path id="Fill-114" class="st1" d="M5.9,51.7l-1,2.5v5.6h12.7c0,0,2.7-6.5,12.9-6.5c5.8,0,9.6,1,13.6,3.8l49.3,0.1h52.9v-3.6h24.2
		l-6-1.9l-8.9-4.4l-96.5,0.2l-18-2.3l0.2-12.8l-24,12.3L5.9,51.7z"/>
	<path id="Fill-120_3_" class="st2" d="M130,61.7L130,61.7L130,61.7"/>
	<path id="Fill-120_5_" class="st2" d="M128.2,61.7L128.2,61.7"/>
	<path id="Fill-120_4_" class="st2" d="M130,61.7"/>
	<path id="Fill-137" class="st2" d="M39.9,48.1c0,0,0.6,1.1,1.5,2.5c1.5,2.6,3.7,6.5,3.8,7.3c0.2,1.3,0.6,5.4,0.9,4.9
		c0.5-1.8,0.6-3.8,0.3-5.7c-0.4-1.5-4.1-9-4.1-9H39.9L39.9,48.1z"/>
	<path id="Fill-138" class="st1" d="M125.8,50.3c0,0,6.7,1.3,8.2,1.9c3.7,1.4,6.1,6,6.3,6.8c0.3,1.3,1.6,4.3,1.8,3.7
		s-0.7-6.1-1.3-7.5s-4.6-6.5-4.6-6.5L125.8,50.3z"/>
	<path id="Fill-139" class="st1" d="M123.3,50.3c0,0-6.7,1.3-8.2,1.9c-3.7,1.4-6.1,6-6.3,6.8c-0.3,1.3-1.6,4.3-1.8,3.7
		s0.7-6.1,1.3-7.5s4.6-6.5,4.6-6.5L123.3,50.3z"/>
	<path id="Fill-140" class="st3" d="M44.8,40.5h-2.4v6.2h2.4V40.5L44.8,40.5z"/>
	<path id="Fill-141" class="st3" d="M44.7,7.6c0-2.4-6.5-2.8-15.5-2.3c-7.9,0.4-9.8,0.7-12.5,2C15.5,8,14.5,8.9,13.8,10
		C11.5,13.2,2.4,23.4,0.3,37.8c0.5,0.1,0.9,0.5,0.8,1v4.5c0,0.5-0.4,0.9-0.8,1c0.1,0.9,0.9,1.5,1.8,1.4l0,0c0,0,1.9-0.2,0.5,3.6
		s1,5.3,1,5.3s1.4,0,2.6,0s10.3,0.1,10.3,0.1l5-6.4c0,0,1.1-1.7,7.9-1.7c4.6,0.1,9.9,0.1,12.9,0v-6.2h2.4V8
		C44.8,7.9,44.8,7.7,44.7,7.6"/>
	<path id="Fill-142" class="st2" d="M30.9,10.2c0,0-15.4,0-19.5,7.2c-4.7,8.3-5.7,14-5.4,16.2s0,3.6,2.6,3.3
		c13.2-1.2,11.6-5,19.4-6.1c7.3-1,9-3.5,9.4-8S38.1,10,38.1,10L30.9,10.2z"/>
	<polygon id="Fill-143" class="st1" points="58,61.3 81.8,61.3 81.8,50.5 58,50.5 	"/>
	<path id="Fill-144" class="st1" d="M44.8,47.4H29.5c0,0-5.4-0.3-7.3,1.4l-5,6.4H4.3l0.4,5.2h10.4c0.1-1.8,1.1-3.5,2.7-4.5l4.8-6.3
		c0,0,1.5-1.4,6.8-1.4h15.3L44.8,47.4L44.8,47.4z"/>
	<path id="Fill-145" class="st2" d="M5.6,56h10.8c-1.2,0.8-2,2.1-2.1,3.5H5.6V56z"/>
	<path id="Fill-146" class="st1" d="M4.6,54.1h-3c-0.5,0-0.9,0.4-1.1,0.8c-0.1,0.3-0.2,0.7-0.2,1v3.7c-0.1,0.9,0.5,1.6,1.3,1.8h3
		c0.8-0.2,1.4-1,1.3-1.8v-3.7C6,55,5.5,54.3,4.6,54.1"/>
	<path id="Fill-147" class="st2" d="M3.2,46H2c-0.2,0-0.5,0.2-0.6,0.4h1.3c0.5,0,0.9,0.5,0.9,1v4c0,0.5-0.4,1-0.9,1H1.4
		c0.1,0.2,0.3,0.3,0.6,0.4h1.2c0.6-0.2,1-0.8,0.9-1.4v-4C4.2,46.7,3.8,46.2,3.2,46"/>
	<path id="Fill-148" class="st4" d="M2.8,46.4H1.4c-0.2,0.3-0.3,0.6-0.3,1v4c0,0.4,0.1,0.7,0.3,1h1.3c0.5,0,0.9-0.5,0.9-1v-4
		C3.7,46.8,3.3,46.4,2.8,46.4"/>
	<polygon id="Fill-149" class="st1" points="163.3,48.9 157.1,46.8 58.3,46.8 48.2,37.7 48.2,10.9 45.4,10.9 45.4,46.8 45.4,49.6 
		48.2,49.6 156.6,49.6 174.6,55.4 175.4,52.8 	"/>
	<polygon id="Fill-150" points="156.7,49.2 45.8,49.2 45.8,11.3 47.8,11.3 47.8,37.9 58.1,47.2 157,47.2 174.9,53 174.3,54.9 	"/>
	<polygon id="Fill-151" class="st5" points="49.4,39.4 45.8,43 45.8,47.5 51.8,41.5 	"/>
	<polygon id="Fill-152" class="st5" points="110.5,47.2 108.6,49.2 113.1,49.2 115,47.2 	"/>
	<polygon id="Fill-153" class="st5" points="172.5,54.3 174.3,54.9 174.9,53 174,52.7 	"/>
	<polygon id="Fill-154" class="st5" points="101.9,47.2 99.9,49.2 104.4,49.2 106.4,47.2 	"/>
	<polygon id="Fill-155" class="st5" points="45.8,11.3 45.8,12.9 47.4,11.3 	"/>
	<polygon id="Fill-156" class="st5" points="84.7,47.2 82.7,49.2 87.2,49.2 89.2,47.2 	"/>
	<polygon id="Fill-157" class="st5" points="67.4,47.2 65.4,49.2 69.9,49.2 71.9,47.2 	"/>
	<polygon id="Fill-158" class="st5" points="53.9,43.5 48.2,49.2 52.7,49.2 56.3,45.6 	"/>
	<polygon id="Fill-159" class="st5" points="119.2,47.2 117.2,49.2 121.7,49.2 123.7,47.2 	"/>
	<polygon id="Fill-160" class="st5" points="93.3,47.2 91.3,49.2 95.8,49.2 97.8,47.2 	"/>
	<polygon id="Fill-161" class="st5" points="58.8,47.2 56.8,49.2 61.3,49.2 63.3,47.2 	"/>
	<polygon id="Fill-162" class="st5" points="47.8,15 45.8,17 45.8,21.5 47.8,19.5 	"/>
	<polygon id="Fill-163" class="st5" points="161,48.5 159.4,50.1 162.8,51.2 164.4,49.6 	"/>
	<polygon id="Fill-164" class="st5" points="157,47.2 153.7,47.2 151.7,49.2 156.2,49.2 157.9,47.5 	"/>
	<polygon id="Fill-165" class="st5" points="145,47.2 143.1,49.2 147.6,49.2 149.5,47.2 	"/>
	<polygon id="Fill-166" class="st5" points="136.4,47.2 134.4,49.2 138.9,49.2 140.9,47.2 	"/>
	<polygon id="Fill-167" class="st5" points="47.8,32.3 45.8,34.3 45.8,38.8 47.8,36.8 	"/>
	<polygon id="Fill-168" class="st5" points="76,47.2 74.1,49.2 78.6,49.2 80.5,47.2 	"/>
	<polygon id="Fill-169" class="st5" points="167.5,50.6 166,52.2 169.4,53.3 170.9,51.7 	"/>
	<polygon id="Fill-170" class="st5" points="127.8,47.2 125.8,49.2 130.3,49.2 132.3,47.2 	"/>
	<polygon id="Fill-171" class="st5" points="47.8,23.7 45.8,25.7 45.8,30.2 47.8,28.2 	"/>
	<polygon id="Fill-172" class="st2" points="160.8,55 159.5,55 157.9,52.2 51.5,52.2 51.5,50.2 160.8,50.2 	"/>
	<polygon id="Fill-173" class="st6" points="160.6,55.9 162.8,55.9 162.8,50.2 160.6,50.2 	"/>
	<path id="Fill-174" d="M161.4,54.8v-3.6c0-0.1,0-0.2,0.1-0.2h1.9c0-0.2-0.1-0.3-0.3-0.4h-1.8c-0.2,0.1-0.4,0.4-0.3,0.6v3.6
		c-0.1,0.2,0.1,0.5,0.3,0.6h1.8c0.2,0,0.3-0.2,0.3-0.4h-1.9C161.5,54.9,161.4,54.8,161.4,54.8"/>
	<path id="Fill-175" class="st7" d="M163.4,51h-1.9c0,0.1-0.1,0.2-0.1,0.2v3.6c0,0.1,0,0.2,0.1,0.2h1.9c0-0.1,0-0.2,0-0.2v-3.6
		C163.4,51.1,163.4,51,163.4,51"/>
	<polygon id="Fill-176" class="st6" points="48,17 50.2,17 50.2,11.3 48,11.3 	"/>
	<path id="Fill-177" d="M48.9,15.9v-3.5c0-0.1,0-0.2,0.1-0.2h1.9c0-0.2-0.1-0.3-0.3-0.4h-1.8c-0.2,0.1-0.4,0.4-0.3,0.6v3.5
		c-0.1,0.2,0.1,0.5,0.3,0.6h1.8c0.2-0.1,0.3-0.2,0.3-0.4H49C48.9,16.1,48.9,16,48.9,15.9"/>
	<path id="Fill-178" class="st7" d="M50.9,12.1H49c0,0.1-0.1,0.2-0.1,0.2v3.5c0,0.1,0,0.2,0.1,0.2h1.9c0-0.1,0-0.2,0-0.2v-3.5
		C50.9,12.3,50.9,12.2,50.9,12.1"/>
	<path id="Fill-179" class="st8" d="M37.4,36.3h-2.5c-0.8,0.1-1.4,0.7-1.3,1.5c0.1,0.7,0.6,1.2,1.3,1.3h2.6c0.8-0.1,1.4-0.7,1.3-1.5
		C38.6,36.9,38.1,36.4,37.4,36.3"/>
	<path id="Fill-180" class="st9" d="M37.3,0.3C37.3,0.1,37.2,0,37,0h-2.1c-0.2,0-0.3,0.1-0.3,0.3L34,4.8c0,0.1,0.1,0.3,0.2,0.3l0,0
		h3.3c0.1,0,0.2-0.1,0.2-0.2V4.8L37.3,0.3z"/>
	<path id="Fill-181" class="st2" d="M38.2,4.9c0-0.1-0.1-0.2-0.3-0.2h-4c-0.2,0-0.3,0.1-0.3,0.3v0.2c0,0.2,0.1,0.3,0.3,0.3h4
		c0.2,0,0.3-0.1,0.3-0.3V4.9C38.2,5,38.2,5,38.2,4.9"/>
	<path id="Fill-182" class="st3" d="M0.4,37.4c0,0-0.9,6.1,0.2,7.7s1.3-7.2,1.3-7.3"/>
</g>
<g>
	<circle class="st2" cx="125.6" cy="61.9" r="11.3"/>
	<g class="wheel">
		<path id="Fill-116_1_" class="st10" d="M125.6,54.6c-4,0-7.3,3.2-7.3,7.2s3.2,7.3,7.2,7.3c4,0,7.3-3.2,7.3-7.2l0,0
			C132.8,57.9,129.6,54.6,125.6,54.6L125.6,54.6"/>
		<path id="Fill-117_1_" class="st2" d="M125.5,58.3c0.5,0,0.9-0.4,0.9-0.9c0,0,0,0,0-0.1c-0.1-0.5-0.5-0.9-1-0.8
			c-0.4,0-0.8,0.4-0.8,0.8c0,0,0,0,0,0.1C124.6,57.9,125,58.3,125.5,58.3"/>
		<path id="Fill-118_1_" class="st2" d="M123,59.4c0.4-0.4,0.4-0.9,0-1.3c-0.4-0.4-0.9-0.4-1.3,0s-0.4,0.9,0,1.3l0,0
			C122.1,59.8,122.7,59.8,123,59.4"/>
		<path id="Fill-119_1_" class="st2" d="M122,62L122,62c-0.1-0.6-0.5-0.9-1-0.9c-0.4,0-0.8,0.4-0.8,0.8c0,0,0,0,0,0.1
			c0,0.5,0.4,0.9,0.9,0.9S122.1,62.5,122,62C122.1,62,122.1,62,122,62"/>
		<path id="Fill-120_1_" class="st2" d="M131,61.7c-0.1-0.5-0.5-0.9-1-0.8c-0.4,0-0.8,0.4-0.8,0.8c0,0,0,0,0,0.1
			c0,0.5,0.4,0.9,0.9,0.9C130.6,62.7,131,62.3,131,61.7C131,61.8,131,61.8,131,61.7C131,61.8,131,61.8,131,61.7"/>
		<path id="Fill-121_1_" class="st2" d="M129.3,59.3c0.4-0.4,0.4-0.9,0-1.3c-0.4-0.4-0.9-0.4-1.3,0c-0.4,0.4-0.4,0.9,0,1.3l0,0
			C128.4,59.6,129,59.6,129.3,59.3"/>
		<path id="Fill-122_1_" class="st2" d="M123.2,64.4c-0.4-0.4-1-0.4-1.3,0c-0.4,0.4-0.4,1,0,1.3c0.4,0.4,1,0.4,1.3,0
			c0.2-0.2,0.3-0.5,0.3-0.7C123.4,64.8,123.3,64.6,123.2,64.4"/>
		<path id="Fill-123_1_" class="st2" d="M125.7,65.4c-0.5,0-0.9,0.4-0.9,0.8c0,0,0,0,0,0.1c0,0.5,0.4,0.9,0.9,0.9s0.9-0.4,0.9-0.9
			l0,0c0,0,0,0,0-0.1C126.6,65.8,126.2,65.4,125.7,65.4"/>
		<path id="Fill-124_1_" class="st2" d="M129.5,64.3c-0.4-0.4-1-0.4-1.3,0c-0.4,0.4-0.4,1,0,1.3c0.4,0.4,1,0.4,1.3,0
			c0.2-0.2,0.3-0.5,0.3-0.7C129.7,64.7,129.6,64.5,129.5,64.3"/>
		<path id="Fill-125_1_" class="st2" d="M125.6,59.3c-1.4,0-2.5,1.1-2.5,2.5s1.1,2.5,2.5,2.5s2.5-1.1,2.5-2.5l0,0
			C128.1,60.5,127,59.3,125.6,59.3L125.6,59.3"/>
	</g>
</g>
<g>
	<circle class="st2" cx="31.1" cy="61.9" r="11.3"/>
	<g class="wheel">
		<path id="Fill-116_2_" class="st10" d="M31.1,54.6c-4,0-7.3,3.2-7.3,7.2s3.2,7.3,7.2,7.3s7.3-3.2,7.3-7.2l0,0
			C38.3,57.9,35.1,54.6,31.1,54.6L31.1,54.6"/>
		<path id="Fill-117_2_" class="st2" d="M31,58.3c0.5,0,0.9-0.4,0.9-0.9c0,0,0,0,0-0.1c-0.1-0.5-0.5-0.9-1-0.8
			c-0.4,0-0.8,0.4-0.8,0.8c0,0,0,0,0,0.1C30.1,57.9,30.5,58.3,31,58.3"/>
		<path id="Fill-118_2_" class="st2" d="M28.5,59.4c0.4-0.4,0.4-0.9,0-1.3c-0.4-0.4-0.9-0.4-1.3,0s-0.4,0.9,0,1.3l0,0
			C27.6,59.8,28.2,59.8,28.5,59.4"/>
		<path id="Fill-119_2_" class="st2" d="M27.5,62L27.5,62c-0.1-0.6-0.5-0.9-1-0.9c-0.4,0-0.8,0.4-0.8,0.8c0,0,0,0,0,0.1
			c0,0.5,0.4,0.9,0.9,0.9C27.1,62.9,27.6,62.5,27.5,62C27.6,62,27.6,62,27.5,62"/>
		<path id="Fill-120_2_" class="st2" d="M36.5,61.7c-0.1-0.5-0.5-0.9-1-0.8c-0.4,0-0.8,0.4-0.8,0.8c0,0,0,0,0,0.1
			c0,0.5,0.4,0.9,0.9,0.9C36.1,62.7,36.5,62.3,36.5,61.7C36.5,61.8,36.5,61.8,36.5,61.7C36.5,61.8,36.5,61.8,36.5,61.7"/>
		<path id="Fill-121_2_" class="st2" d="M34.8,59.3c0.4-0.4,0.4-0.9,0-1.3c-0.4-0.4-0.9-0.4-1.3,0s-0.4,0.9,0,1.3l0,0
			C33.9,59.6,34.5,59.6,34.8,59.3"/>
		<path id="Fill-122_2_" class="st2" d="M28.7,64.4c-0.4-0.4-1-0.4-1.3,0c-0.4,0.4-0.4,1,0,1.3c0.4,0.4,1,0.4,1.3,0
			c0.2-0.2,0.3-0.5,0.3-0.7C28.9,64.8,28.8,64.6,28.7,64.4"/>
		<path id="Fill-123_2_" class="st2" d="M31.2,65.4c-0.5,0-0.9,0.4-0.9,0.8c0,0,0,0,0,0.1c0,0.5,0.4,0.9,0.9,0.9s0.9-0.4,0.9-0.9
			l0,0c0,0,0,0,0-0.1C32.1,65.8,31.7,65.4,31.2,65.4"/>
		<path id="Fill-124_2_" class="st2" d="M35,64.3c-0.4-0.4-1-0.4-1.3,0c-0.4,0.4-0.4,1,0,1.3c0.4,0.4,1,0.4,1.3,0
			c0.2-0.2,0.3-0.5,0.3-0.7C35.2,64.7,35.1,64.5,35,64.3"/>
		<path id="Fill-125_2_" class="st2" d="M31.1,59.3c-1.4,0-2.5,1.1-2.5,2.5s1.1,2.5,2.5,2.5s2.5-1.1,2.5-2.5l0,0
			C33.6,60.5,32.5,59.3,31.1,59.3L31.1,59.3"/>
	</g>
</g>
</svg>
